<svg xmlns="http://www.w3.org/2000/svg" width="1200" height="630" viewBox="0 0 1200 630">
  <title>Welcome to my world — Atilla Kuncoro Djati</title>
  <desc>A red, black, and cream portfolio poster with Atilla Kuncoro Djati's portrait.</desc>
  <defs>
    <pattern id="dots" width="9" height="9" patternUnits="userSpaceOnUse">
      <circle cx="2" cy="2" r="1" fill="#f3efe6" opacity=".12"/>
    </pattern>
    <pattern id="red-dots" width="9" height="9" patternUnits="userSpaceOnUse">
      <circle cx="2" cy="2" r="1.2" fill="#121215" opacity=".2"/>
    </pattern>
    <clipPath id="slash"><path d="M888 0H1200V630H705Z"/></clipPath>
  </defs>
  <rect width="1200" height="630" fill="#121215"/>
  <rect width="1200" height="630" fill="url(#dots)"/>
  <path d="M888 0H1200V630H705Z" fill="#eb1e32"/>
  <rect x="705" width="495" height="630" fill="url(#red-dots)" clip-path="url(#slash)"/>
  <path d="M70 44H212" stroke="#eb1e32" stroke-width="6"/>
  <text x="70" y="88" fill="#f3efe6" font-family="Arial, sans-serif" font-size="21" font-weight="700" letter-spacing="4">WELCOME TO MY WORLD</text>
  <g font-family="Impact, Arial Narrow, sans-serif" font-size="136" letter-spacing="1">
    <text x="76" y="242" fill="#eb1e32">ATILLA</text>
    <text x="68" y="234" fill="#f3efe6">ATILLA</text>
    <g transform="rotate(-3 338 307)">
      <path d="M75 253H671V386H75Z" fill="#eb1e32"/>
      <path d="M65 244H661V377H65Z" fill="#f3efe6"/>
      <text x="80" y="356" fill="#121215">KUNCORO</text>
    </g>
    <text x="109" y="514" fill="#eb1e32">DJATI.</text>
    <text x="101" y="506" fill="#f3efe6">DJATI.</text>
  </g>
  <path d="M1045 51Q1058 93 1097 105Q1058 116 1045 158Q1032 116 993 105Q1032 93 1045 51Z" fill="#f3efe6"/>
  <path d="M1081 445Q1088 469 1110 476Q1088 483 1081 507Q1074 483 1052 476Q1074 469 1081 445Z" fill="#121215"/>
  <g transform="rotate(6 955 305)">
    <rect x="793" y="108" width="355" height="429" fill="#121215"/>
    <rect x="782" y="95" width="355" height="429" fill="#f3efe6"/>
    <image href="../public/assets/profile/atilla-kuncoro-djati.png" x="796" y="109" width="327" height="401" preserveAspectRatio="xMidYMid slice"/>
  </g>
  <rect y="552" width="1200" height="78" fill="#121215"/>
  <path d="M70 552H1130" stroke="#f3efe6" stroke-opacity=".4"/>
  <g fill="#f3efe6" font-family="Arial, sans-serif">
    <text x="70" y="599" font-size="20" font-weight="700" letter-spacing=".5">atillakuncorodjati.vercel.app</text>
    <text x="1130" y="599" text-anchor="end" font-size="16" letter-spacing="2">WEB / UI·UX / DATA</text>
  </g>
</svg>
